<?xml version="1.0" encoding="UTF-8" standalone="no"?><svg xmlns="http://www.w3.org/2000/svg" xmlns:xlink="http://www.w3.org/1999/xlink" contentScriptType="application/ecmascript" contentStyleType="text/css" height="567px" preserveAspectRatio="none" style="width:1041px;height:567px;" version="1.1" viewBox="0 0 1041 567" width="1041px" zoomAndPan="magnify"><defs><filter height="300%" id="fhli133l1lzzo" width="300%" x="-1" y="-1"><feGaussianBlur result="blurOut" stdDeviation="2.0"/><feColorMatrix in="blurOut" result="blurOut2" type="matrix" values="0 0 0 0 0 0 0 0 0 0 0 0 0 0 0 0 0 0 .4 0"/><feOffset dx="4.0" dy="4.0" in="blurOut2" result="blurOut3"/><feBlend in="SourceGraphic" in2="blurOut3" mode="normal"/></filter></defs><g><!--MD5=[e6c809820d88acc3564faeb20394ab9d]
class MainWindow--><rect codeLine="1" fill="#FEFECE" filter="url(#fhli133l1lzzo)" height="137.6328" id="MainWindow" style="stroke: #A80036; stroke-width: 1.5;" width="503" x="7" y="269"/><ellipse cx="216.75" cy="285" fill="#ADD1B2" rx="11" ry="11" style="stroke: #A80036; stroke-width: 1.0;"/><path d="M219.0938,280.6719 C218.1563,280.2344 217.5625,280.0938 216.6875,280.0938 C214.0625,280.0938 212.0625,282.1719 212.0625,284.8906 L212.0625,286.0156 C212.0625,288.5938 214.1719,290.4844 217.0625,290.4844 C218.2813,290.4844 219.4375,290.1875 220.1875,289.6406 C220.7656,289.2344 221.0938,288.7813 221.0938,288.3906 C221.0938,287.9375 220.7031,287.5469 220.2344,287.5469 C220.0156,287.5469 219.8125,287.625 219.625,287.8125 C219.1719,288.2969 219.1719,288.2969 218.9844,288.3906 C218.5625,288.6563 217.875,288.7813 217.1094,288.7813 C215.0625,288.7813 213.7656,287.6875 213.7656,285.9844 L213.7656,284.8906 C213.7656,283.1094 215.0156,281.7969 216.75,281.7969 C217.3281,281.7969 217.9375,281.9531 218.4063,282.2031 C218.8906,282.4844 219.0625,282.7031 219.1563,283.1094 C219.2188,283.5156 219.25,283.6406 219.3906,283.7656 C219.5313,283.9063 219.7656,284.0156 219.9844,284.0156 C220.25,284.0156 220.5156,283.875 220.6875,283.6563 C220.7969,283.5 220.8281,283.3125 220.8281,282.8906 L220.8281,281.4688 C220.8281,281.0313 220.8125,280.9063 220.7188,280.75 C220.5625,280.4844 220.2813,280.3438 219.9844,280.3438 C219.6875,280.3438 219.4844,280.4375 219.2656,280.75 L219.0938,280.6719 Z " fill="#000000"/><text fill="#000000" font-family="sans-serif" font-size="12" lengthAdjust="spacingAndGlyphs" textLength="75" x="237.25" y="289.1543">MainWindow</text><line style="stroke: #A80036; stroke-width: 1.5;" x1="8" x2="509" y1="301" y2="301"/><line style="stroke: #A80036; stroke-width: 1.5;" x1="8" x2="509" y1="309" y2="309"/><ellipse cx="18" cy="320" fill="#84BE84" rx="3" ry="3" style="stroke: #038048; stroke-width: 1.0;"/><text fill="#000000" font-family="sans-serif" font-size="11" lengthAdjust="spacingAndGlyphs" textLength="78" x="27" y="323.2104">MainWindow()</text><ellipse cx="18" cy="332.8047" fill="#84BE84" rx="3" ry="3" style="stroke: #038048; stroke-width: 1.0;"/><text fill="#000000" font-family="sans-serif" font-size="11" lengthAdjust="spacingAndGlyphs" textLength="165" x="27" y="336.0151">async UpdateHostList() : void</text><rect fill="#F24D5C" height="6" style="stroke: #C82930; stroke-width: 1.0;" width="6" x="15" y="342.6094"/><text fill="#000000" font-family="sans-serif" font-size="11" lengthAdjust="spacingAndGlyphs" textLength="477" x="27" y="348.8198">cbServers_SelectionChanged(sender: Object, e: SelectionChangedEventArgs): void</text><rect fill="#F24D5C" height="6" style="stroke: #C82930; stroke-width: 1.0;" width="6" x="15" y="355.4141"/><text fill="#000000" font-family="sans-serif" font-size="11" lengthAdjust="spacingAndGlyphs" textLength="359" x="27" y="361.6245">Btn_AddServer_Click(sender: object, e: RoutedEventArgs): void</text><ellipse cx="18" cy="371.2188" fill="#84BE84" rx="3" ry="3" style="stroke: #038048; stroke-width: 1.0;"/><text fill="#000000" font-family="sans-serif" font-size="11" lengthAdjust="spacingAndGlyphs" textLength="146" x="27" y="374.4292">PopulateServerList(): void</text><ellipse cx="18" cy="384.0234" fill="#84BE84" rx="3" ry="3" style="stroke: #038048; stroke-width: 1.0;"/><text fill="#000000" font-family="sans-serif" font-size="11" lengthAdjust="spacingAndGlyphs" textLength="188" x="27" y="387.2339">async UpdateInfoDataGrid(): void</text><rect fill="#F24D5C" height="6" style="stroke: #C82930; stroke-width: 1.0;" width="6" x="15" y="393.8281"/><text fill="#000000" font-family="sans-serif" font-size="11" lengthAdjust="spacingAndGlyphs" textLength="462" x="27" y="400.0386">dgHosts_SelectionChanged(sender: object, e: SelectionChangedEventArgs): void</text><!--MD5=[fa22f29c53ed6d2510bea2e0aa245b7f]
class Window--><rect fill="#FEFECE" filter="url(#fhli133l1lzzo)" height="48" id="Window" style="stroke: #A80036; stroke-width: 1.5;" width="80" x="218.5" y="84"/><ellipse cx="233.5" cy="100" fill="#ADD1B2" rx="11" ry="11" style="stroke: #A80036; stroke-width: 1.0;"/><path d="M235.8438,95.6719 C234.9063,95.2344 234.3125,95.0938 233.4375,95.0938 C230.8125,95.0938 228.8125,97.1719 228.8125,99.8906 L228.8125,101.0156 C228.8125,103.5938 230.9219,105.4844 233.8125,105.4844 C235.0313,105.4844 236.1875,105.1875 236.9375,104.6406 C237.5156,104.2344 237.8438,103.7813 237.8438,103.3906 C237.8438,102.9375 237.4531,102.5469 236.9844,102.5469 C236.7656,102.5469 236.5625,102.625 236.375,102.8125 C235.9219,103.2969 235.9219,103.2969 235.7344,103.3906 C235.3125,103.6563 234.625,103.7813 233.8594,103.7813 C231.8125,103.7813 230.5156,102.6875 230.5156,100.9844 L230.5156,99.8906 C230.5156,98.1094 231.7656,96.7969 233.5,96.7969 C234.0781,96.7969 234.6875,96.9531 235.1563,97.2031 C235.6406,97.4844 235.8125,97.7031 235.9063,98.1094 C235.9688,98.5156 236,98.6406 236.1406,98.7656 C236.2813,98.9063 236.5156,99.0156 236.7344,99.0156 C237,99.0156 237.2656,98.875 237.4375,98.6563 C237.5469,98.5 237.5781,98.3125 237.5781,97.8906 L237.5781,96.4688 C237.5781,96.0313 237.5625,95.9063 237.4688,95.75 C237.3125,95.4844 237.0313,95.3438 236.7344,95.3438 C236.4375,95.3438 236.2344,95.4375 236.0156,95.75 L235.8438,95.6719 Z " fill="#000000"/><text fill="#000000" font-family="sans-serif" font-size="12" lengthAdjust="spacingAndGlyphs" textLength="48" x="247.5" y="104.1543">Window</text><line style="stroke: #A80036; stroke-width: 1.5;" x1="219.5" x2="297.5" y1="116" y2="116"/><line style="stroke: #A80036; stroke-width: 1.5;" x1="219.5" x2="297.5" y1="124" y2="124"/><!--MD5=[c62846c0c9715c1d98dd5933e5913037]
class Host--><rect codeLine="11" fill="#FEFECE" filter="url(#fhli133l1lzzo)" height="73.6094" id="Host" style="stroke: #A80036; stroke-width: 1.5;" width="130" x="545.5" y="301"/><ellipse cx="592.25" cy="317" fill="#ADD1B2" rx="11" ry="11" style="stroke: #A80036; stroke-width: 1.0;"/><path d="M594.5938,312.6719 C593.6563,312.2344 593.0625,312.0938 592.1875,312.0938 C589.5625,312.0938 587.5625,314.1719 587.5625,316.8906 L587.5625,318.0156 C587.5625,320.5938 589.6719,322.4844 592.5625,322.4844 C593.7813,322.4844 594.9375,322.1875 595.6875,321.6406 C596.2656,321.2344 596.5938,320.7813 596.5938,320.3906 C596.5938,319.9375 596.2031,319.5469 595.7344,319.5469 C595.5156,319.5469 595.3125,319.625 595.125,319.8125 C594.6719,320.2969 594.6719,320.2969 594.4844,320.3906 C594.0625,320.6563 593.375,320.7813 592.6094,320.7813 C590.5625,320.7813 589.2656,319.6875 589.2656,317.9844 L589.2656,316.8906 C589.2656,315.1094 590.5156,313.7969 592.25,313.7969 C592.8281,313.7969 593.4375,313.9531 593.9063,314.2031 C594.3906,314.4844 594.5625,314.7031 594.6563,315.1094 C594.7188,315.5156 594.75,315.6406 594.8906,315.7656 C595.0313,315.9063 595.2656,316.0156 595.4844,316.0156 C595.75,316.0156 596.0156,315.875 596.1875,315.6563 C596.2969,315.5 596.3281,315.3125 596.3281,314.8906 L596.3281,313.4688 C596.3281,313.0313 596.3125,312.9063 596.2188,312.75 C596.0625,312.4844 595.7813,312.3438 595.4844,312.3438 C595.1875,312.3438 594.9844,312.4375 594.7656,312.75 L594.5938,312.6719 Z " fill="#000000"/><text fill="#000000" font-family="sans-serif" font-size="12" lengthAdjust="spacingAndGlyphs" textLength="28" x="612.75" y="321.1543">Host</text><line style="stroke: #A80036; stroke-width: 1.5;" x1="546.5" x2="674.5" y1="333" y2="333"/><ellipse cx="556.5" cy="344" fill="none" rx="3" ry="3" style="stroke: #038048; stroke-width: 1.0;"/><text fill="#000000" font-family="sans-serif" font-size="11" lengthAdjust="spacingAndGlyphs" textLength="72" x="565.5" y="347.2104">Name: string</text><line style="stroke: #A80036; stroke-width: 1.5;" x1="546.5" x2="674.5" y1="353.8047" y2="353.8047"/><ellipse cx="556.5" cy="364.8047" fill="#84BE84" rx="3" ry="3" style="stroke: #038048; stroke-width: 1.0;"/><text fill="#000000" font-family="sans-serif" font-size="11" lengthAdjust="spacingAndGlyphs" textLength="104" x="565.5" y="368.0151">Host(name: string)</text><!--MD5=[88dbfe8572c16244f15eec58f6037418]
class Info--><rect codeLine="16" fill="#FEFECE" filter="url(#fhli133l1lzzo)" height="86.4141" id="Info" style="stroke: #A80036; stroke-width: 1.5;" width="199" x="159" y="467"/><ellipse cx="243.25" cy="483" fill="#ADD1B2" rx="11" ry="11" style="stroke: #A80036; stroke-width: 1.0;"/><path d="M245.5938,478.6719 C244.6563,478.2344 244.0625,478.0938 243.1875,478.0938 C240.5625,478.0938 238.5625,480.1719 238.5625,482.8906 L238.5625,484.0156 C238.5625,486.5938 240.6719,488.4844 243.5625,488.4844 C244.7813,488.4844 245.9375,488.1875 246.6875,487.6406 C247.2656,487.2344 247.5938,486.7813 247.5938,486.3906 C247.5938,485.9375 247.2031,485.5469 246.7344,485.5469 C246.5156,485.5469 246.3125,485.625 246.125,485.8125 C245.6719,486.2969 245.6719,486.2969 245.4844,486.3906 C245.0625,486.6563 244.375,486.7813 243.6094,486.7813 C241.5625,486.7813 240.2656,485.6875 240.2656,483.9844 L240.2656,482.8906 C240.2656,481.1094 241.5156,479.7969 243.25,479.7969 C243.8281,479.7969 244.4375,479.9531 244.9063,480.2031 C245.3906,480.4844 245.5625,480.7031 245.6563,481.1094 C245.7188,481.5156 245.75,481.6406 245.8906,481.7656 C246.0313,481.9063 246.2656,482.0156 246.4844,482.0156 C246.75,482.0156 247.0156,481.875 247.1875,481.6563 C247.2969,481.5 247.3281,481.3125 247.3281,480.8906 L247.3281,479.4688 C247.3281,479.0313 247.3125,478.9063 247.2188,478.75 C247.0625,478.4844 246.7813,478.3438 246.4844,478.3438 C246.1875,478.3438 245.9844,478.4375 245.7656,478.75 L245.5938,478.6719 Z " fill="#000000"/><text fill="#000000" font-family="sans-serif" font-size="12" lengthAdjust="spacingAndGlyphs" textLength="22" x="263.75" y="487.1543">Info</text><line style="stroke: #A80036; stroke-width: 1.5;" x1="160" x2="357" y1="499" y2="499"/><ellipse cx="170" cy="510" fill="none" rx="3" ry="3" style="stroke: #038048; stroke-width: 1.0;"/><text fill="#000000" font-family="sans-serif" font-size="11" lengthAdjust="spacingAndGlyphs" textLength="72" x="179" y="513.2104">Name: string</text><ellipse cx="170" cy="522.8047" fill="none" rx="3" ry="3" style="stroke: #038048; stroke-width: 1.0;"/><text fill="#000000" font-family="sans-serif" font-size="11" lengthAdjust="spacingAndGlyphs" textLength="71" x="179" y="526.0151">Value: string</text><line style="stroke: #A80036; stroke-width: 1.5;" x1="160" x2="357" y1="532.6094" y2="532.6094"/><ellipse cx="170" cy="543.6094" fill="#84BE84" rx="3" ry="3" style="stroke: #038048; stroke-width: 1.0;"/><text fill="#000000" font-family="sans-serif" font-size="11" lengthAdjust="spacingAndGlyphs" textLength="173" x="179" y="546.8198">Info(name:string, value: string)</text><!--MD5=[1b52a8b596ce08ae40bcbd3f2e5d601e]
class InfluxDB--><rect codeLine="23" fill="#FEFECE" filter="url(#fhli133l1lzzo)" height="201.6563" id="InfluxDB" style="stroke: #A80036; stroke-width: 1.5;" width="314" x="394.5" y="7"/><ellipse cx="523.25" cy="23" fill="#ADD1B2" rx="11" ry="11" style="stroke: #A80036; stroke-width: 1.0;"/><path d="M525.5938,18.6719 C524.6563,18.2344 524.0625,18.0938 523.1875,18.0938 C520.5625,18.0938 518.5625,20.1719 518.5625,22.8906 L518.5625,24.0156 C518.5625,26.5938 520.6719,28.4844 523.5625,28.4844 C524.7813,28.4844 525.9375,28.1875 526.6875,27.6406 C527.2656,27.2344 527.5938,26.7813 527.5938,26.3906 C527.5938,25.9375 527.2031,25.5469 526.7344,25.5469 C526.5156,25.5469 526.3125,25.625 526.125,25.8125 C525.6719,26.2969 525.6719,26.2969 525.4844,26.3906 C525.0625,26.6563 524.375,26.7813 523.6094,26.7813 C521.5625,26.7813 520.2656,25.6875 520.2656,23.9844 L520.2656,22.8906 C520.2656,21.1094 521.5156,19.7969 523.25,19.7969 C523.8281,19.7969 524.4375,19.9531 524.9063,20.2031 C525.3906,20.4844 525.5625,20.7031 525.6563,21.1094 C525.7188,21.5156 525.75,21.6406 525.8906,21.7656 C526.0313,21.9063 526.2656,22.0156 526.4844,22.0156 C526.75,22.0156 527.0156,21.875 527.1875,21.6563 C527.2969,21.5 527.3281,21.3125 527.3281,20.8906 L527.3281,19.4688 C527.3281,19.0313 527.3125,18.9063 527.2188,18.75 C527.0625,18.4844 526.7813,18.3438 526.4844,18.3438 C526.1875,18.3438 525.9844,18.4375 525.7656,18.75 L525.5938,18.6719 Z " fill="#000000"/><text fill="#000000" font-family="sans-serif" font-size="12" lengthAdjust="spacingAndGlyphs" textLength="48" x="543.75" y="27.1543">InfluxDB</text><line style="stroke: #A80036; stroke-width: 1.5;" x1="395.5" x2="707.5" y1="39" y2="39"/><rect fill="none" height="6" style="stroke: #C82930; stroke-width: 1.0;" width="6" x="402.5" y="47"/><text fill="#000000" font-family="sans-serif" font-size="11" lengthAdjust="spacingAndGlyphs" text-decoration="underline" textLength="165" x="414.5" y="53.2104">CurrentServerAddress: string</text><rect fill="none" height="6" style="stroke: #C82930; stroke-width: 1.0;" width="6" x="402.5" y="59.8047"/><text fill="#000000" font-family="sans-serif" font-size="11" lengthAdjust="spacingAndGlyphs" text-decoration="underline" textLength="153" x="414.5" y="66.0151">CurrentServerName: string</text><rect fill="none" height="6" style="stroke: #C82930; stroke-width: 1.0;" width="6" x="402.5" y="72.6094"/><text fill="#000000" font-family="sans-serif" font-size="11" lengthAdjust="spacingAndGlyphs" text-decoration="underline" textLength="105" x="414.5" y="78.8198">CurrentHost: string</text><line style="stroke: #A80036; stroke-width: 1.5;" x1="395.5" x2="707.5" y1="85.4141" y2="85.4141"/><ellipse cx="405.5" cy="96.4141" fill="#84BE84" rx="3" ry="3" style="stroke: #038048; stroke-width: 1.0;"/><text fill="#000000" font-family="sans-serif" font-size="11" lengthAdjust="spacingAndGlyphs" text-decoration="underline" textLength="269" x="414.5" y="99.6245">SetCurrentServerAddress(address: string): void</text><ellipse cx="405.5" cy="109.2188" fill="#84BE84" rx="3" ry="3" style="stroke: #038048; stroke-width: 1.0;"/><text fill="#000000" font-family="sans-serif" font-size="11" lengthAdjust="spacingAndGlyphs" text-decoration="underline" textLength="245" x="414.5" y="112.4292">SetCurrentServerName(name: string): void</text><ellipse cx="405.5" cy="122.0234" fill="#84BE84" rx="3" ry="3" style="stroke: #038048; stroke-width: 1.0;"/><text fill="#000000" font-family="sans-serif" font-size="11" lengthAdjust="spacingAndGlyphs" text-decoration="underline" textLength="188" x="414.5" y="125.2339">SetCurrentHost(host: string): void</text><ellipse cx="405.5" cy="134.8281" fill="#84BE84" rx="3" ry="3" style="stroke: #038048; stroke-width: 1.0;"/><text fill="#000000" font-family="sans-serif" font-size="11" lengthAdjust="spacingAndGlyphs" text-decoration="underline" textLength="219" x="414.5" y="138.0386">async GetRamUsage(): Task&lt;Double&gt;</text><ellipse cx="405.5" cy="147.6328" fill="#84BE84" rx="3" ry="3" style="stroke: #038048; stroke-width: 1.0;"/><text fill="#000000" font-family="sans-serif" font-size="11" lengthAdjust="spacingAndGlyphs" text-decoration="underline" textLength="216" x="414.5" y="150.8433">async GetCPUUsage(): Task&lt;Double&gt;</text><ellipse cx="405.5" cy="160.4375" fill="#84BE84" rx="3" ry="3" style="stroke: #038048; stroke-width: 1.0;"/><text fill="#000000" font-family="sans-serif" font-size="11" lengthAdjust="spacingAndGlyphs" text-decoration="underline" textLength="172" x="414.5" y="163.6479">async GetUptime(): Task&lt;int&gt;</text><ellipse cx="405.5" cy="173.2422" fill="#84BE84" rx="3" ry="3" style="stroke: #038048; stroke-width: 1.0;"/><text fill="#000000" font-family="sans-serif" font-size="11" lengthAdjust="spacingAndGlyphs" text-decoration="underline" textLength="286" x="414.5" y="176.4526">async GetCPUUsageAverage24h(): Task&lt;Double&gt;</text><ellipse cx="405.5" cy="186.0469" fill="#84BE84" rx="3" ry="3" style="stroke: #038048; stroke-width: 1.0;"/><text fill="#000000" font-family="sans-serif" font-size="11" lengthAdjust="spacingAndGlyphs" text-decoration="underline" textLength="288" x="414.5" y="189.2573">async GetRAMUsageAverage24h(): Task&lt;Double&gt;</text><ellipse cx="405.5" cy="198.8516" fill="#84BE84" rx="3" ry="3" style="stroke: #038048; stroke-width: 1.0;"/><text fill="#000000" font-family="sans-serif" font-size="11" lengthAdjust="spacingAndGlyphs" text-decoration="underline" textLength="258" x="414.5" y="202.062">async GetAllHostsAsync(): Task&lt;List&lt;Host&gt;&gt;</text><!--MD5=[c60af77fe5573b84a4aa4bce89659574]
class Server--><rect codeLine="38" fill="#FEFECE" filter="url(#fhli133l1lzzo)" height="86.4141" id="Server" style="stroke: #A80036; stroke-width: 1.5;" width="234" x="768.5" y="295"/><ellipse cx="860.75" cy="311" fill="#ADD1B2" rx="11" ry="11" style="stroke: #A80036; stroke-width: 1.0;"/><path d="M863.0938,306.6719 C862.1563,306.2344 861.5625,306.0938 860.6875,306.0938 C858.0625,306.0938 856.0625,308.1719 856.0625,310.8906 L856.0625,312.0156 C856.0625,314.5938 858.1719,316.4844 861.0625,316.4844 C862.2813,316.4844 863.4375,316.1875 864.1875,315.6406 C864.7656,315.2344 865.0938,314.7813 865.0938,314.3906 C865.0938,313.9375 864.7031,313.5469 864.2344,313.5469 C864.0156,313.5469 863.8125,313.625 863.625,313.8125 C863.1719,314.2969 863.1719,314.2969 862.9844,314.3906 C862.5625,314.6563 861.875,314.7813 861.1094,314.7813 C859.0625,314.7813 857.7656,313.6875 857.7656,311.9844 L857.7656,310.8906 C857.7656,309.1094 859.0156,307.7969 860.75,307.7969 C861.3281,307.7969 861.9375,307.9531 862.4063,308.2031 C862.8906,308.4844 863.0625,308.7031 863.1563,309.1094 C863.2188,309.5156 863.25,309.6406 863.3906,309.7656 C863.5313,309.9063 863.7656,310.0156 863.9844,310.0156 C864.25,310.0156 864.5156,309.875 864.6875,309.6563 C864.7969,309.5 864.8281,309.3125 864.8281,308.8906 L864.8281,307.4688 C864.8281,307.0313 864.8125,306.9063 864.7188,306.75 C864.5625,306.4844 864.2813,306.3438 863.9844,306.3438 C863.6875,306.3438 863.4844,306.4375 863.2656,306.75 L863.0938,306.6719 Z " fill="#000000"/><text fill="#000000" font-family="sans-serif" font-size="12" lengthAdjust="spacingAndGlyphs" textLength="41" x="881.25" y="315.1543">Server</text><line style="stroke: #A80036; stroke-width: 1.5;" x1="769.5" x2="1001.5" y1="327" y2="327"/><ellipse cx="779.5" cy="338" fill="none" rx="3" ry="3" style="stroke: #038048; stroke-width: 1.0;"/><text fill="#000000" font-family="sans-serif" font-size="11" lengthAdjust="spacingAndGlyphs" textLength="84" x="788.5" y="341.2104">Address: string</text><ellipse cx="779.5" cy="350.8047" fill="none" rx="3" ry="3" style="stroke: #038048; stroke-width: 1.0;"/><text fill="#000000" font-family="sans-serif" font-size="11" lengthAdjust="spacingAndGlyphs" textLength="72" x="788.5" y="354.0151">Name: string</text><line style="stroke: #A80036; stroke-width: 1.5;" x1="769.5" x2="1001.5" y1="360.6094" y2="360.6094"/><ellipse cx="779.5" cy="371.6094" fill="#84BE84" rx="3" ry="3" style="stroke: #038048; stroke-width: 1.0;"/><text fill="#000000" font-family="sans-serif" font-size="11" lengthAdjust="spacingAndGlyphs" textLength="208" x="788.5" y="374.8198">Server(name: string, address: string)</text><!--MD5=[5fc9b60f5d5c64ad0df8704dae8d48bb]
class Utilities--><rect codeLine="44" fill="#FEFECE" filter="url(#fhli133l1lzzo)" height="201.6563" id="Utilities" style="stroke: #A80036; stroke-width: 1.5;" width="284" x="743.5" y="7"/><ellipse cx="859.25" cy="23" fill="#ADD1B2" rx="11" ry="11" style="stroke: #A80036; stroke-width: 1.0;"/><path d="M861.5938,18.6719 C860.6563,18.2344 860.0625,18.0938 859.1875,18.0938 C856.5625,18.0938 854.5625,20.1719 854.5625,22.8906 L854.5625,24.0156 C854.5625,26.5938 856.6719,28.4844 859.5625,28.4844 C860.7813,28.4844 861.9375,28.1875 862.6875,27.6406 C863.2656,27.2344 863.5938,26.7813 863.5938,26.3906 C863.5938,25.9375 863.2031,25.5469 862.7344,25.5469 C862.5156,25.5469 862.3125,25.625 862.125,25.8125 C861.6719,26.2969 861.6719,26.2969 861.4844,26.3906 C861.0625,26.6563 860.375,26.7813 859.6094,26.7813 C857.5625,26.7813 856.2656,25.6875 856.2656,23.9844 L856.2656,22.8906 C856.2656,21.1094 857.5156,19.7969 859.25,19.7969 C859.8281,19.7969 860.4375,19.9531 860.9063,20.2031 C861.3906,20.4844 861.5625,20.7031 861.6563,21.1094 C861.7188,21.5156 861.75,21.6406 861.8906,21.7656 C862.0313,21.9063 862.2656,22.0156 862.4844,22.0156 C862.75,22.0156 863.0156,21.875 863.1875,21.6563 C863.2969,21.5 863.3281,21.3125 863.3281,20.8906 L863.3281,19.4688 C863.3281,19.0313 863.3125,18.9063 863.2188,18.75 C863.0625,18.4844 862.7813,18.3438 862.4844,18.3438 C862.1875,18.3438 861.9844,18.4375 861.7656,18.75 L861.5938,18.6719 Z " fill="#000000"/><text fill="#000000" font-family="sans-serif" font-size="12" lengthAdjust="spacingAndGlyphs" textLength="44" x="879.75" y="27.1543">Utilities</text><line style="stroke: #A80036; stroke-width: 1.5;" x1="744.5" x2="1026.5" y1="39" y2="39"/><rect fill="none" height="6" style="stroke: #C82930; stroke-width: 1.0;" width="6" x="751.5" y="47"/><text fill="#000000" font-family="sans-serif" font-size="11" lengthAdjust="spacingAndGlyphs" text-decoration="underline" textLength="128" x="763.5" y="53.2104">Servers: List&lt;Server&gt;</text><rect fill="none" height="6" style="stroke: #C82930; stroke-width: 1.0;" width="6" x="751.5" y="59.8047"/><text fill="#000000" font-family="sans-serif" font-size="11" lengthAdjust="spacingAndGlyphs" text-decoration="underline" textLength="144" x="763.5" y="66.0151">SelectedServerIndex: int</text><rect fill="none" height="6" style="stroke: #C82930; stroke-width: 1.0;" width="6" x="751.5" y="72.6094"/><text fill="#000000" font-family="sans-serif" font-size="11" lengthAdjust="spacingAndGlyphs" text-decoration="underline" textLength="110" x="763.5" y="78.8198">HostsUpdated: bool</text><rect fill="none" height="6" style="stroke: #C82930; stroke-width: 1.0;" width="6" x="751.5" y="85.4141"/><text fill="#000000" font-family="sans-serif" font-size="11" lengthAdjust="spacingAndGlyphs" text-decoration="underline" textLength="100" x="763.5" y="91.6245">Hosts: List&lt;Host&gt;</text><line style="stroke: #A80036; stroke-width: 1.5;" x1="744.5" x2="1026.5" y1="98.2188" y2="98.2188"/><ellipse cx="754.5" cy="109.2188" fill="#84BE84" rx="3" ry="3" style="stroke: #038048; stroke-width: 1.0;"/><text fill="#000000" font-family="sans-serif" font-size="11" lengthAdjust="spacingAndGlyphs" text-decoration="underline" textLength="171" x="763.5" y="112.4292">GetAllServers(): List&lt;Server&gt;</text><ellipse cx="754.5" cy="122.0234" fill="#84BE84" rx="3" ry="3" style="stroke: #038048; stroke-width: 1.0;"/><text fill="#000000" font-family="sans-serif" font-size="11" lengthAdjust="spacingAndGlyphs" text-decoration="underline" textLength="183" x="763.5" y="125.2339">AddServer(server: Server): void</text><ellipse cx="754.5" cy="134.8281" fill="#84BE84" rx="3" ry="3" style="stroke: #038048; stroke-width: 1.0;"/><text fill="#000000" font-family="sans-serif" font-size="11" lengthAdjust="spacingAndGlyphs" text-decoration="underline" textLength="173" x="763.5" y="138.0386">GetSelectedServerIndex(): int</text><ellipse cx="754.5" cy="147.6328" fill="#84BE84" rx="3" ry="3" style="stroke: #038048; stroke-width: 1.0;"/><text fill="#000000" font-family="sans-serif" font-size="11" lengthAdjust="spacingAndGlyphs" text-decoration="underline" textLength="235" x="763.5" y="150.8433">SetSelectedServerIndex(index: int): void</text><ellipse cx="754.5" cy="160.4375" fill="#84BE84" rx="3" ry="3" style="stroke: #038048; stroke-width: 1.0;"/><text fill="#000000" font-family="sans-serif" font-size="11" lengthAdjust="spacingAndGlyphs" text-decoration="underline" textLength="166" x="763.5" y="163.6479">GetSelectedServer(): Server</text><ellipse cx="754.5" cy="173.2422" fill="#84BE84" rx="3" ry="3" style="stroke: #038048; stroke-width: 1.0;"/><text fill="#000000" font-family="sans-serif" font-size="11" lengthAdjust="spacingAndGlyphs" text-decoration="underline" textLength="171" x="763.5" y="176.4526">DeleteServer(index: int): void</text><ellipse cx="754.5" cy="186.0469" fill="#84BE84" rx="3" ry="3" style="stroke: #038048; stroke-width: 1.0;"/><text fill="#000000" font-family="sans-serif" font-size="11" lengthAdjust="spacingAndGlyphs" text-decoration="underline" textLength="258" x="763.5" y="189.2573">async GetAllHostsAsync(): Task&lt;List&lt;Host&gt;&gt;</text><ellipse cx="754.5" cy="198.8516" fill="#84BE84" rx="3" ry="3" style="stroke: #038048; stroke-width: 1.0;"/><text fill="#000000" font-family="sans-serif" font-size="11" lengthAdjust="spacingAndGlyphs" text-decoration="underline" textLength="196" x="763.5" y="202.062">SetCorruntHost(name: string): void</text><!--MD5=[2c1334d90ebd1e6bcc6782675d0467d8]
reverse link Window to MainWindow--><path d="M258.5,152.58 C258.5,185.478 258.5,231.237 258.5,268.944 " fill="none" id="Window-backto-MainWindow" style="stroke: #A80036; stroke-width: 1.0;"/><polygon fill="none" points="251.5,152.117,258.5,132.117,265.5,152.117,251.5,152.117" style="stroke: #A80036; stroke-width: 1.0;"/><!--MD5=[6da2aea899eade5c424d70c6bfacfda5]
reverse link Utilities to Server--><path codeLine="60" d="M885.5,222.135 C885.5,248.103 885.5,274.131 885.5,294.828 " fill="none" id="Utilities-backto-Server" style="stroke: #A80036; stroke-width: 1.0;"/><polygon fill="#A80036" points="885.5,209.004,881.5,215.004,885.5,221.004,889.5,215.004,885.5,209.004" style="stroke: #A80036; stroke-width: 1.0;"/><!--MD5=[99180b505719507a301119a8bd0c2324]
reverse link Utilities to Host--><path codeLine="61" d="M754.653,217.484 C718.302,247.622 681.33,278.276 653.93,300.993 " fill="none" id="Utilities-backto-Host" style="stroke: #A80036; stroke-width: 1.0;"/><polygon fill="#A80036" points="764.881,209.004,757.709,209.7544,755.6432,216.6632,762.8152,215.9129,764.881,209.004" style="stroke: #A80036; stroke-width: 1.0;"/><!--MD5=[c4c4467fe1c9f98ec03e4046e644c693]
reverse link MainWindow to Info--><path codeLine="62" d="M258.5,420.52 C258.5,436.523 258.5,452.69 258.5,466.7489 " fill="none" id="MainWindow-backto-Info" style="stroke: #A80036; stroke-width: 1.0;"/><polygon fill="#A80036" points="258.5,407.166,254.5,413.166,258.5,419.166,262.5,413.166,258.5,407.166" style="stroke: #A80036; stroke-width: 1.0;"/><!--MD5=[01a6f1add9d20cc9531eeafc1294cc98]
reverse link InfluxDB to Host--><path codeLine="63" d="M580.673,221.737 C588.113,250.487 595.58,279.344 601.182,300.993 " fill="none" id="InfluxDB-backto-Host" style="stroke: #A80036; stroke-width: 1.0;"/><polygon fill="#A80036" points="577.378,209.004,575.0081,215.8146,580.3833,220.6216,582.7532,213.811,577.378,209.004" style="stroke: #A80036; stroke-width: 1.0;"/><!--MD5=[b6b5be4bed27742b8f230e21113b3d58]
@startuml
class MainWindow extends Window {
    + MainWindow()
    + async UpdateHostList() : void
    - cbServers_SelectionChanged(sender: Object, e: SelectionChangedEventArgs): void
    - Btn_AddServer_Click(sender: object, e: RoutedEventArgs): void
    + PopulateServerList(): void
    + async UpdateInfoDataGrid(): void
    - dgHosts_SelectionChanged(sender: object, e: SelectionChangedEventArgs): void
}

class Host {
    + Name: string 
    + Host(name: string)
}

class Info {
    + Name: string
    + Value: string
    + Info(name:string, value: string)

}

class InfluxDB {
    - {static} CurrentServerAddress: string
    - {static} CurrentServerName: string
    - {static} CurrentHost: string
    + {static} SetCurrentServerAddress(address: string): void
    + {static} SetCurrentServerName(name: string): void
    + {static} SetCurrentHost(host: string): void
    + {static} async GetRamUsage(): Task<Double>
    + {static} async GetCPUUsage(): Task<Double>
    + {static} async GetUptime(): Task<int>
    + {static} async GetCPUUsageAverage24h(): Task<Double>
    + {static} async GetRAMUsageAverage24h(): Task<Double>
    + {static} async GetAllHostsAsync(): Task<List<Host>>
}

class Server {
    + Address: string
    + Name: string
    + Server(name: string, address: string)
}

class Utilities {
    - {static} Servers: List<Server>
    - {static} SelectedServerIndex: int
    - {static} HostsUpdated: bool
    - {static} Hosts: List<Host>

    + {static} GetAllServers(): List<Server>
    + {static} AddServer(server: Server): void
    + {static} GetSelectedServerIndex(): int
    + {static} SetSelectedServerIndex(index: int): void
    + {static} GetSelectedServer(): Server
    + {static} DeleteServer(index: int): void
    + {static} async GetAllHostsAsync(): Task<List<Host>>
    + {static} SetCorruntHost(name: string): void
}

Utilities *- - Server
Utilities *- - Host
MainWindow *- - Info
InfluxDB *- - Host
@enduml

PlantUML version 1.2020.20beta11(Unknown compile time)
(GPL source distribution)
Java Runtime: Java(TM) SE Runtime Environment
JVM: Java HotSpot(TM) 64-Bit Server VM
Default Encoding: UTF-8
Language: en
Country: US
--></g></svg>