<?xml version="1.0" encoding="UTF-8" standalone="no"?><svg xmlns="http://www.w3.org/2000/svg" xmlns:xlink="http://www.w3.org/1999/xlink" contentScriptType="application/ecmascript" contentStyleType="text/css" height="481px" preserveAspectRatio="none" style="width:550px;height:481px;" version="1.1" viewBox="0 0 550 481" width="550px" zoomAndPan="magnify"><defs><filter height="300%" id="f1mac8sluvgb66" width="300%" x="-1" y="-1"><feGaussianBlur result="blurOut" stdDeviation="2.0"/><feColorMatrix in="blurOut" result="blurOut2" type="matrix" values="0 0 0 0 0 0 0 0 0 0 0 0 0 0 0 0 0 0 .4 0"/><feOffset dx="4.0" dy="4.0" in="blurOut2" result="blurOut3"/><feBlend in="SourceGraphic" in2="blurOut3" mode="normal"/></filter></defs><g><rect fill="#FFFFFF" filter="url(#f1mac8sluvgb66)" height="29.1328" style="stroke: #A80036; stroke-width: 1.0;" width="10" x="30.5" y="143.6953"/><rect fill="#FFFFFF" filter="url(#f1mac8sluvgb66)" height="29.1328" style="stroke: #A80036; stroke-width: 1.0;" width="10" x="252.5" y="114.5625"/><rect fill="#FFFFFF" filter="url(#f1mac8sluvgb66)" height="87.3984" style="stroke: #A80036; stroke-width: 1.0;" width="10" x="252.5" y="332.4922"/><rect fill="#FFFFFF" filter="url(#f1mac8sluvgb66)" height="29.1328" style="stroke: #A80036; stroke-width: 1.0;" width="10" x="494.5" y="201.9609"/><rect fill="#FFFFFF" filter="url(#f1mac8sluvgb66)" height="29.1328" style="stroke: #A80036; stroke-width: 1.0;" width="10" x="494.5" y="361.625"/><line style="stroke: #A80036; stroke-width: 1.0; stroke-dasharray: 5.0,5.0;" x1="35" x2="35" y1="40.2969" y2="437.8906"/><line style="stroke: #A80036; stroke-width: 1.0; stroke-dasharray: 5.0,5.0;" x1="257.5" x2="257.5" y1="40.2969" y2="437.8906"/><line style="stroke: #A80036; stroke-width: 1.0; stroke-dasharray: 5.0,5.0;" x1="499.5" x2="499.5" y1="40.2969" y2="437.8906"/><rect fill="#FEFECE" filter="url(#f1mac8sluvgb66)" height="30.2969" style="stroke: #A80036; stroke-width: 1.5;" width="57" x="5" y="5"/><text fill="#000000" font-family="sans-serif" font-size="14" lengthAdjust="spacingAndGlyphs" textLength="43" x="12" y="24.9951">Client</text><rect fill="#FEFECE" filter="url(#f1mac8sluvgb66)" height="30.2969" style="stroke: #A80036; stroke-width: 1.5;" width="57" x="5" y="436.8906"/><text fill="#000000" font-family="sans-serif" font-size="14" lengthAdjust="spacingAndGlyphs" textLength="43" x="12" y="456.8857">Client</text><rect fill="#FEFECE" filter="url(#f1mac8sluvgb66)" height="30.2969" style="stroke: #A80036; stroke-width: 1.5;" width="132" x="189.5" y="5"/><text fill="#000000" font-family="sans-serif" font-size="14" lengthAdjust="spacingAndGlyphs" textLength="118" x="196.5" y="24.9951">Application WPF</text><rect fill="#FEFECE" filter="url(#f1mac8sluvgb66)" height="30.2969" style="stroke: #A80036; stroke-width: 1.5;" width="132" x="189.5" y="436.8906"/><text fill="#000000" font-family="sans-serif" font-size="14" lengthAdjust="spacingAndGlyphs" textLength="118" x="196.5" y="456.8857">Application WPF</text><rect fill="#FEFECE" filter="url(#f1mac8sluvgb66)" height="30.2969" style="stroke: #A80036; stroke-width: 1.5;" width="74" x="460.5" y="5"/><text fill="#000000" font-family="sans-serif" font-size="14" lengthAdjust="spacingAndGlyphs" textLength="60" x="467.5" y="24.9951">InfluxDB</text><rect fill="#FEFECE" filter="url(#f1mac8sluvgb66)" height="30.2969" style="stroke: #A80036; stroke-width: 1.5;" width="74" x="460.5" y="436.8906"/><text fill="#000000" font-family="sans-serif" font-size="14" lengthAdjust="spacingAndGlyphs" textLength="60" x="467.5" y="456.8857">InfluxDB</text><rect fill="#FFFFFF" filter="url(#f1mac8sluvgb66)" height="29.1328" style="stroke: #A80036; stroke-width: 1.0;" width="10" x="30.5" y="143.6953"/><rect fill="#FFFFFF" filter="url(#f1mac8sluvgb66)" height="29.1328" style="stroke: #A80036; stroke-width: 1.0;" width="10" x="252.5" y="114.5625"/><rect fill="#FFFFFF" filter="url(#f1mac8sluvgb66)" height="87.3984" style="stroke: #A80036; stroke-width: 1.0;" width="10" x="252.5" y="332.4922"/><rect fill="#FFFFFF" filter="url(#f1mac8sluvgb66)" height="29.1328" style="stroke: #A80036; stroke-width: 1.0;" width="10" x="494.5" y="201.9609"/><rect fill="#FFFFFF" filter="url(#f1mac8sluvgb66)" height="29.1328" style="stroke: #A80036; stroke-width: 1.0;" width="10" x="494.5" y="361.625"/><rect fill="#EEEEEE" filter="url(#f1mac8sluvgb66)" height="3" style="stroke: #EEEEEE; stroke-width: 1.0;" width="543.5" x="0" y="70.8633"/><line style="stroke: #000000; stroke-width: 1.0;" x1="0" x2="543.5" y1="70.8633" y2="70.8633"/><line style="stroke: #000000; stroke-width: 1.0;" x1="0" x2="543.5" y1="73.8633" y2="73.8633"/><rect fill="#EEEEEE" filter="url(#f1mac8sluvgb66)" height="23.1328" style="stroke: #000000; stroke-width: 2.0;" width="122" x="210.75" y="60.2969"/><text fill="#000000" font-family="sans-serif" font-size="13" font-weight="bold" lengthAdjust="spacingAndGlyphs" textLength="103" x="216.75" y="76.3638">Ajout serveur</text><polygon fill="#A80036" points="240.5,110.5625,250.5,114.5625,240.5,118.5625,244.5,114.5625" style="stroke: #A80036; stroke-width: 1.0;"/><line style="stroke: #A80036; stroke-width: 1.0;" x1="35.5" x2="246.5" y1="114.5625" y2="114.5625"/><text fill="#000000" font-family="sans-serif" font-size="13" lengthAdjust="spacingAndGlyphs" textLength="78" x="42.5" y="109.4966">Ajout server</text><polygon fill="#A80036" points="51.5,139.6953,41.5,143.6953,51.5,147.6953,47.5,143.6953" style="stroke: #A80036; stroke-width: 1.0;"/><line style="stroke: #A80036; stroke-width: 1.0;" x1="45.5" x2="256.5" y1="143.6953" y2="143.6953"/><text fill="#000000" font-family="sans-serif" font-size="13" lengthAdjust="spacingAndGlyphs" textLength="90" x="57.5" y="138.6294">Ouvre fenêtre</text><polygon fill="#A80036" points="245.5,168.8281,255.5,172.8281,245.5,176.8281,249.5,172.8281" style="stroke: #A80036; stroke-width: 1.0;"/><line style="stroke: #A80036; stroke-width: 1.0;" x1="35.5" x2="251.5" y1="172.8281" y2="172.8281"/><text fill="#000000" font-family="sans-serif" font-size="13" lengthAdjust="spacingAndGlyphs" textLength="193" x="42.5" y="167.7622">Entre les données et confirme</text><polygon fill="#A80036" points="482.5,197.9609,492.5,201.9609,482.5,205.9609,486.5,201.9609" style="stroke: #A80036; stroke-width: 1.0;"/><line style="stroke: #A80036; stroke-width: 1.0;" x1="257.5" x2="488.5" y1="201.9609" y2="201.9609"/><text fill="#000000" font-family="sans-serif" font-size="13" lengthAdjust="spacingAndGlyphs" textLength="143" x="264.5" y="196.895">Requête list des hôtes</text><polygon fill="#A80036" points="268.5,227.0938,258.5,231.0938,268.5,235.0938,264.5,231.0938" style="stroke: #A80036; stroke-width: 1.0;"/><line style="stroke: #A80036; stroke-width: 1.0;" x1="262.5" x2="498.5" y1="231.0938" y2="231.0938"/><text fill="#000000" font-family="sans-serif" font-size="13" lengthAdjust="spacingAndGlyphs" textLength="111" x="274.5" y="226.0278">Renvoie des hôts</text><polygon fill="#A80036" points="46.5,256.2266,36.5,260.2266,46.5,264.2266,42.5,260.2266" style="stroke: #A80036; stroke-width: 1.0;"/><line style="stroke: #A80036; stroke-width: 1.0;" x1="40.5" x2="256.5" y1="260.2266" y2="260.2266"/><text fill="#000000" font-family="sans-serif" font-size="13" lengthAdjust="spacingAndGlyphs" textLength="157" x="52.5" y="255.1606">Affiche la liste des hôtes</text><rect fill="#EEEEEE" filter="url(#f1mac8sluvgb66)" height="3" style="stroke: #EEEEEE; stroke-width: 1.0;" width="543.5" x="0" y="288.793"/><line style="stroke: #000000; stroke-width: 1.0;" x1="0" x2="543.5" y1="288.793" y2="288.793"/><line style="stroke: #000000; stroke-width: 1.0;" x1="0" x2="543.5" y1="291.793" y2="291.793"/><rect fill="#EEEEEE" filter="url(#f1mac8sluvgb66)" height="23.1328" style="stroke: #000000; stroke-width: 2.0;" width="161" x="191.25" y="278.2266"/><text fill="#000000" font-family="sans-serif" font-size="13" font-weight="bold" lengthAdjust="spacingAndGlyphs" textLength="142" x="197.25" y="294.2935">Sélection de l'hôte</text><polygon fill="#A80036" points="240.5,328.4922,250.5,332.4922,240.5,336.4922,244.5,332.4922" style="stroke: #A80036; stroke-width: 1.0;"/><line style="stroke: #A80036; stroke-width: 1.0;" x1="35.5" x2="246.5" y1="332.4922" y2="332.4922"/><text fill="#000000" font-family="sans-serif" font-size="13" lengthAdjust="spacingAndGlyphs" textLength="127" x="42.5" y="327.4263">Séléctionne un hôte</text><polygon fill="#A80036" points="482.5,357.625,492.5,361.625,482.5,365.625,486.5,361.625" style="stroke: #A80036; stroke-width: 1.0;"/><line style="stroke: #A80036; stroke-width: 1.0;" x1="262.5" x2="488.5" y1="361.625" y2="361.625"/><text fill="#000000" font-family="sans-serif" font-size="13" lengthAdjust="spacingAndGlyphs" textLength="213" x="269.5" y="356.5591">Demande information pour l'hôte</text><polygon fill="#A80036" points="273.5,386.7578,263.5,390.7578,273.5,394.7578,269.5,390.7578" style="stroke: #A80036; stroke-width: 1.0;"/><line style="stroke: #A80036; stroke-width: 1.0;" x1="267.5" x2="498.5" y1="390.7578" y2="390.7578"/><text fill="#000000" font-family="sans-serif" font-size="13" lengthAdjust="spacingAndGlyphs" textLength="164" x="279.5" y="385.6919">Renvoie des informations</text><polygon fill="#A80036" points="46.5,415.8906,36.5,419.8906,46.5,423.8906,42.5,419.8906" style="stroke: #A80036; stroke-width: 1.0;"/><line style="stroke: #A80036; stroke-width: 1.0;" x1="40.5" x2="256.5" y1="419.8906" y2="419.8906"/><text fill="#000000" font-family="sans-serif" font-size="13" lengthAdjust="spacingAndGlyphs" textLength="173" x="52.5" y="414.8247">Affichage des informations</text><!--MD5=[e62b151ebc21b12b9e0ada9f9f11f8a9]
@startuml
participant Client
participant "Application WPF" as App
participant InfluxDB

== Ajout serveur ==
Client -> App : Ajout server
activate App
Client <- App : Ouvre fenêtre
deactivate App
activate Client
Client -> App : Entre les données et confirme
deactivate Client
App -> InfluxDB : Requête list des hôtes
activate InfluxDB
App <- InfluxDB : Renvoie des hôts
deactivate InfluxDB
Client <- App : Affiche la liste des hôtes
== Sélection de l'hôte ==
Client -> App : Séléctionne un hôte
Activate App
App -> InfluxDB : Demande information pour l'hôte
activate InfluxDB
App <- InfluxDB : Renvoie des informations
deactivate InfluxDB
Client <- App : Affichage des informations
deactivate App
@enduml

PlantUML version 1.2020.20beta9(Unknown compile time)
(GPL source distribution)
Java Runtime: Java(TM) SE Runtime Environment
JVM: Java HotSpot(TM) 64-Bit Server VM
Default Encoding: UTF-8
Language: en
Country: US
--></g></svg>