<?xml version="1.0" encoding="UTF-8" standalone="no"?><svg xmlns="http://www.w3.org/2000/svg" xmlns:xlink="http://www.w3.org/1999/xlink" contentScriptType="application/ecmascript" contentStyleType="text/css" height="335px" preserveAspectRatio="none" style="width:332px;height:335px;" version="1.1" viewBox="0 0 332 335" width="332px" zoomAndPan="magnify"><defs><filter height="300%" id="f1akdcofwfm82b" width="300%" x="-1" y="-1"><feGaussianBlur result="blurOut" stdDeviation="2.0"/><feColorMatrix in="blurOut" result="blurOut2" type="matrix" values="0 0 0 0 0 0 0 0 0 0 0 0 0 0 0 0 0 0 .4 0"/><feOffset dx="4.0" dy="4.0" in="blurOut2" result="blurOut3"/><feBlend in="SourceGraphic" in2="blurOut3" mode="normal"/></filter></defs><g><!--MD5=[48cea501bd752f8782d52582acfb7033]
cluster Application WPF--><polygon fill="#FFFFFF" filter="url(#f1akdcofwfm82b)" points="96,6,234,6,241,28.2969,315,28.2969,315,328,96,328,96,6" style="stroke: #000000; stroke-width: 1.5;"/><line style="stroke: #000000; stroke-width: 1.5;" x1="96" x2="241" y1="28.2969" y2="28.2969"/><text fill="#000000" font-family="sans-serif" font-size="14" font-weight="bold" lengthAdjust="spacingAndGlyphs" textLength="132" x="100" y="20.9951">Application WPF</text><ellipse cx="205.7254" cy="57.2451" fill="#FEFECE" filter="url(#f1akdcofwfm82b)" rx="66.7254" ry="15.7451" style="stroke: #A80036; stroke-width: 1.5;"/><text fill="#000000" font-family="sans-serif" font-size="14" lengthAdjust="spacingAndGlyphs" textLength="98" x="156.7254" y="61.8935">Ajouter hôtes</text><ellipse cx="205.7005" cy="215.9401" fill="#FEFECE" filter="url(#f1akdcofwfm82b)" rx="82.7005" ry="18.9401" style="stroke: #A80036; stroke-width: 1.5;"/><text fill="#000000" font-family="sans-serif" font-size="14" lengthAdjust="spacingAndGlyphs" textLength="137" x="137.2005" y="220.5885">Sélectionner hôtes</text><ellipse cx="205.6693" cy="291.1339" fill="#FEFECE" filter="url(#f1akdcofwfm82b)" rx="93.6693" ry="21.1339" style="stroke: #A80036; stroke-width: 1.5;"/><text fill="#000000" font-family="sans-serif" font-size="14" lengthAdjust="spacingAndGlyphs" textLength="162" x="124.6693" y="295.7823">Regarder informations</text><ellipse cx="205.3427" cy="142.7685" fill="#FEFECE" filter="url(#f1akdcofwfm82b)" rx="81.8427" ry="18.7685" style="stroke: #A80036; stroke-width: 1.5;"/><text fill="#000000" font-family="sans-serif" font-size="14" lengthAdjust="spacingAndGlyphs" textLength="135" x="137.8427" y="147.417">Remplir formulaire</text><!--MD5=[0ba5ee7700168656dc1b457c6fe9fdac]
entity Client--><ellipse cx="27.5" cy="185" fill="#FEFECE" filter="url(#f1akdcofwfm82b)" rx="8" ry="8" style="stroke: #A80036; stroke-width: 1.5;"/><path d="M27.5,193 L27.5,220 M14.5,201 L40.5,201 M27.5,220 L14.5,235 M27.5,220 L40.5,235 " fill="none" filter="url(#f1akdcofwfm82b)" style="stroke: #A80036; stroke-width: 1.5;"/><text fill="#000000" font-family="sans-serif" font-size="14" lengthAdjust="spacingAndGlyphs" textLength="43" x="6" y="253.4951">Client</text><!--MD5=[a8132ee63667ebd2a17fef01a5a120e7]
link Remplir formulaire to ajout--><path d="M205.5,123.914 C205.5,110.284 205.5,91.953 205.5,77.925 " fill="none" id="Remplir formulaire-to-ajout" style="stroke: #A80036; stroke-width: 1.0; stroke-dasharray: 7.0,7.0;"/><polygon fill="#A80036" points="205.5,72.586,201.5,81.586,205.5,77.586,209.5,81.586,205.5,72.586" style="stroke: #A80036; stroke-width: 1.0;"/><text fill="#000000" font-family="sans-serif" font-size="13" lengthAdjust="spacingAndGlyphs" textLength="52" x="168" y="102.8169">extends</text><!--MD5=[6948592f3b0b2a35f46243711b56ee3d]
link Client to ajout--><path d="M42.6956,175.269 C52.4213,152.383 67.332,124.741 88,106 C108.074,87.797 135.893,75.753 159.312,68.163 " fill="none" id="Client-ajout" style="stroke: #A80036; stroke-width: 1.0;"/><!--MD5=[a3a2e91a85aed3e0e1eda69683eb3082]
link Client to selection--><path d="M49.0339,216 C67.3507,216 95.4135,216 122.681,216 " fill="none" id="Client-selection" style="stroke: #A80036; stroke-width: 1.0;"/><!--MD5=[d313f5743a08850d2b8b565b9d556489]
link Client to regarder--><path d="M49.0094,230.469 C60.1711,237.896 74.4365,246.6838 88,253 C106.225,261.487 126.87,268.8863 145.664,274.8444 " fill="none" id="Client-regarder" style="stroke: #A80036; stroke-width: 1.0;"/><!--MD5=[c44bb29736aaae6ce1ed9a3e24b25441]
@startuml
left to right direction
actor Client
package "Application WPF" {
    usecase "Ajouter hôtes" as ajout
    usecase  "Sélectionner hôtes" as selection
    usecase "Regarder informations" as regarder
    (Remplir formulaire) .> (ajout) : extends
}

Client - - ajout
Client - - selection
Client - - regarder
@enduml

PlantUML version 1.2020.20beta9(Unknown compile time)
(GPL source distribution)
Java Runtime: Java(TM) SE Runtime Environment
JVM: Java HotSpot(TM) 64-Bit Server VM
Default Encoding: UTF-8
Language: en
Country: US
--></g></svg>